<svg width="480" height="480" viewBox="0 0 480 480" fill="none" xmlns="http://www.w3.org/2000/svg">
<g clip-path="url(#clip0_210_332)">
<path d="M226.434 71.3686H254.223C257.381 71.3686 259.907 68.8423 259.907 65.6844C259.907 62.5265 257.381 60.0002 254.223 60.0002H226.434V71.3686ZM226.434 97.8949H254.855C258.644 97.8949 261.171 95.3686 261.171 91.5791C261.171 87.7897 258.644 85.2634 254.855 85.2634H226.434V97.8949ZM271.276 77.6844C275.065 81.4739 277.592 86.5265 277.592 92.2107C277.592 103.579 268.749 112.421 257.381 112.421H211.276V46.1055H256.749C267.486 46.1055 276.328 54.9476 276.328 65.6844C275.697 70.1055 273.802 74.5265 271.276 77.6844ZM282.013 191.369H264.96L259.907 180H222.644L217.592 191.369H200.539L233.381 125.053H248.539L282.013 191.369ZM240.96 142.105L229.592 166.105H252.328L240.96 142.105ZM263.697 205.895H282.644L249.171 248.842V272.211H233.381V248.842L199.907 205.895H218.855L241.592 236.211L263.697 205.895ZM351.486 205.895V220.421H307.276V231.79H350.223V246.316H307.276V258.948H351.486V273.474H291.486V205.895H351.486ZM400.118 246.948H388.118V272.211H372.328V205.895H412.75C424.118 205.895 432.96 215.369 432.96 226.737C432.96 236.211 426.644 243.79 418.434 246.316L438.013 272.211H419.065L400.118 246.948ZM411.486 219.79H388.749V232.421H411.486C415.276 232.421 417.802 229.263 417.802 226.105C417.802 222.948 414.644 219.79 411.486 219.79ZM206.855 272.211H189.802L184.749 260.842H147.486L142.434 272.211H125.381L158.855 205.895H174.013L206.855 272.211ZM165.802 222.948L154.434 246.948H177.802L165.802 222.948ZM65.381 231.158H93.1705C96.3284 231.158 98.8547 228.632 98.8547 225.474C98.8547 222.316 96.3284 219.79 93.1705 219.79H65.381V231.158ZM65.381 257.684H93.8021C97.5916 257.684 100.118 255.158 100.118 251.369C100.118 247.579 97.5916 245.053 93.8021 245.053H65.381V257.684ZM110.223 237.474C114.013 241.263 116.539 246.316 116.539 252C116.539 263.369 107.697 272.211 96.3284 272.211H49.5916V205.895H95.0652C105.802 205.895 114.644 214.737 114.644 225.474C114.644 229.895 112.749 234.316 110.223 237.474ZM271.276 286.105V300.632H227.065V312H270.013V326.526H227.065V339.158H271.276V353.684H211.276V286.105H271.276ZM259.907 389.053C259.907 385.263 257.381 382.737 253.592 382.737H226.434V395.369H253.592C257.381 395.369 259.907 392.842 259.907 389.053ZM210.644 435.158V368.842H254.855C266.223 368.842 275.065 378.316 275.065 389.684C275.065 398.526 270.013 405.474 262.434 408.632L282.644 435.158H263.697L244.749 409.895H226.434V435.158H210.644Z" fill="white"/>
<path d="M480.328 224.842C472.749 99.7895 368.539 0 240.96 0C113.381 0 9.1705 99.7895 1.59155 224.842C1.59155 229.895 2.22313 234.947 2.85471 240C7.90734 281.684 23.6968 320.21 47.6968 352.421C91.2758 411.789 161.381 450.316 240.96 450.316C129.802 450.316 38.8547 363.789 31.2758 255.158C30.6442 250.105 30.6442 245.053 30.6442 240C30.6442 234.947 30.6442 229.895 31.2758 224.842C38.8547 116.21 129.802 29.6842 240.96 29.6842C320.539 29.6842 390.644 68.2105 434.223 127.579C458.223 159.789 474.013 198.316 479.065 240C479.697 245.053 480.328 250.105 480.328 254.526C480.328 249.474 480.96 244.421 480.96 239.368C480.96 234.947 480.96 229.895 480.328 224.842Z" fill="#89D329"/>
<path d="M1.59154 255.158C9.17049 380.21 113.381 480 240.96 480C368.539 480 472.749 380.21 480.328 255.158C480.328 250.105 479.697 245.052 479.065 240C474.013 198.316 458.223 159.789 434.223 127.579C390.644 68.2104 320.539 29.6841 240.96 29.6841C352.118 29.6841 443.065 116.21 450.644 224.842C451.276 229.895 451.276 234.947 451.276 240C451.276 245.052 451.276 250.105 450.644 255.158C443.065 364.421 352.118 450.316 240.96 450.316C161.381 450.316 91.2758 411.789 47.6968 352.421C23.6968 320.21 7.90733 281.684 2.8547 240C2.22312 234.947 1.59154 229.895 1.59154 225.474C1.59154 230.526 0.959961 235.579 0.959961 240.631C0.959961 245.052 0.959961 250.105 1.59154 255.158Z" fill="#00BCFF"/>
</g>
<rect x="0.5" y="0.5" width="479" height="479" stroke="black"/>
<defs>
<clipPath id="clip0_210_332">
<rect width="480" height="480" fill="white"/>
</clipPath>
</defs>
</svg>
